<?xml version="1.0" standalone="no"?>
<!DOCTYPE svg PUBLIC "-//W3C//DTD SVG 20010904//EN"
 "http://www.w3.org/TR/2001/REC-SVG-20010904/DTD/svg10.dtd">
<svg version="1.0" xmlns="http://www.w3.org/2000/svg"
 width="512.000000pt" height="512.000000pt" viewBox="0 0 512.000000 512.000000"
 preserveAspectRatio="xMidYMid meet">
<metadata>
Created by potrace 1.16, written by Peter Selinger 2001-2019
</metadata>
<g transform="translate(0.000000,512.000000) scale(0.100000,-0.100000)"
fill="#000000" stroke="none">
<path d="M1577 5104 c-545 -85 -1011 -392 -1299 -857 -129 -206 -222 -467
-258 -717 -16 -108 -16 -391 -1 -495 90 -617 456 -1131 1001 -1405 608 -305
1361 -246 1905 150 l70 51 29 -33 c64 -74 82 -158 46 -213 -11 -16 -20 -42
-20 -56 0 -39 26 -106 57 -149 16 -20 312 -330 658 -689 438 -453 642 -657
671 -671 48 -24 148 -27 198 -6 54 23 430 387 458 444 30 62 30 150 0 208 -29
57 -1288 1355 -1348 1390 -64 37 -121 42 -178 14 -44 -21 -48 -21 -93 -6 -53
17 -142 83 -143 105 0 7 15 34 34 60 90 122 189 325 244 501 65 205 87 378 79
619 -9 275 -61 488 -177 728 -270 560 -779 935 -1398 1028 -126 19 -412 18
-535 -1z m474 -580 c265 -45 499 -166 688 -355 230 -229 356 -519 368 -844 20
-497 -254 -954 -705 -1179 -278 -139 -630 -165 -934 -70 -193 61 -355 161
-508 314 -248 248 -370 541 -370 890 0 219 41 386 141 578 71 137 126 211 239
322 181 179 421 302 674 344 113 19 294 19 407 0z"/>
</g>
</svg>
