<?xml version="1.0" standalone="no"?>
<!DOCTYPE svg PUBLIC "-//W3C//DTD SVG 20010904//EN"
 "http://www.w3.org/TR/2001/REC-SVG-20010904/DTD/svg10.dtd">
<svg version="1.0" xmlns="http://www.w3.org/2000/svg"
 width="512.000000pt" height="512.000000pt" viewBox="0 0 512.000000 512.000000"
 preserveAspectRatio="xMidYMid meet">

<g transform="translate(0.000000,512.000000) scale(0.100000,-0.100000)"
fill="#000000" stroke="none">
<path d="M1115 4544 c-132 -30 -207 -67 -271 -136 -25 -27 -56 -73 -70 -102
-55 -121 -54 -64 -54 -1719 0 -1669 -2 -1615 57 -1731 35 -69 113 -148 177
-179 121 -60 105 -59 939 -54 652 3 779 6 877 21 480 71 803 218 1076 490 218
217 343 447 429 786 93 366 98 887 14 1280 -50 227 -160 485 -280 654 -224
315 -606 548 -1040 635 -259 52 -285 54 -1084 57 -412 1 -759 0 -770 -2z
m1604 -167 c358 -50 598 -133 821 -281 306 -205 510 -522 600 -931 53 -244 71
-641 42 -900 -102 -889 -590 -1370 -1497 -1477 -81 -10 -305 -13 -840 -13
-671 0 -734 1 -780 18 -105 36 -166 117 -185 244 -16 105 -9 3106 8 3155 35
104 111 170 222 195 88 20 1456 11 1609 -10z"/>
<path d="M1617 3820 l-27 -21 0 -1214 0 -1214 28 -21 c27 -22 28 -22 442 -17
320 3 436 8 505 20 533 95 806 372 896 912 22 126 18 543 -5 670 -83 455 -309
726 -697 839 -187 54 -244 59 -694 63 -419 5 -420 5 -448 -17z m933 -154 c412
-70 642 -275 734 -654 62 -257 59 -631 -9 -892 -23 -90 -104 -253 -159 -322
-85 -106 -223 -197 -376 -248 -150 -49 -272 -62 -647 -67 l-353 -6 0 1108 0
1107 358 -5 c264 -3 382 -9 452 -21z"/>
</g>
</svg>
